M48
;Layer_Color=9474304
;FILE_FORMAT=2:4
INCH,LZ
;TYPE=PLATED
T1F00S00C0.0280
T2F00S00C0.0300
T3F00S00C0.0350
T4F00S00C0.0450
T5F00S00C0.0470
T6F00S00C0.1250
;TYPE=NON_PLATED
T7F00S00C0.0800
%
T01
X0038Y-0087
X0047Y-0062
X0052
X0057
X00745Y-0058
Y-0068
Y-0078
Y-0088
Y-0098
Y-0108
Y-0118
X01045
Y-0108
Y-0098
Y-0088
Y-0078
Y-0068
Y-0058
X01015Y-00115
X00965
X00915
X0086Y-0021
T02
X0045Y-01145
X0065
T03
X00075Y-0129
X00175
X00275
X00375
X00475
X00465Y-008
X0025Y-0064
Y-0054
Y-0044
X0015
Y-0054
Y-0064
X00565Y-008
X00575Y-0129
X00675
X00965Y-00375
Y-00275
X0071Y-00265
X0133Y-00135
X0143
X0153
X00465Y-00265
X0013Y-00285
Y-00185
Y-00085
T04
X00155Y-01006
Y-00865
T05
X0126Y-00965
X0146
Y-00465
X0126
T06
X01465Y-01145
T07
X01185Y-00715
X01535
M30
