G04 Layer_Physical_Order=2*
G04 Layer_Color=16711680*
%FSLAX25Y25*%
%MOIN*%
G70*
G01*
G75*
%ADD12C,0.01000*%
%ADD13C,0.02000*%
%ADD14C,0.05000*%
%ADD15O,0.03000X0.06000*%
%ADD16C,0.07000*%
%ADD17C,0.05500*%
%ADD18R,0.05500X0.05500*%
%ADD19C,0.24000*%
%ADD20C,0.08000*%
%ADD21O,0.07000X0.06500*%
%ADD22R,0.07000X0.06000*%
%ADD23R,0.07000X0.07000*%
%ADD24R,0.07000X0.07000*%
G36*
X104580Y-5543D02*
X104558Y-5558D01*
X102093Y-8023D01*
X101586Y-8090D01*
X100735Y-8443D01*
X100004Y-9004D01*
X99493Y-9669D01*
X99237Y-9668D01*
X98966Y-9580D01*
X98855Y-9025D01*
X98302Y-8198D01*
X97475Y-7645D01*
X96500Y-7451D01*
X95525Y-7645D01*
X94698Y-8198D01*
X94145Y-9025D01*
X94034Y-9580D01*
X93764Y-9668D01*
X93507Y-9669D01*
X92996Y-9004D01*
X92265Y-8443D01*
X91414Y-8090D01*
X91000Y-8036D01*
Y-11500D01*
Y-14964D01*
X91414Y-14910D01*
X92265Y-14557D01*
X92996Y-13996D01*
X93507Y-13331D01*
X93764Y-13332D01*
X94034Y-13419D01*
X94145Y-13975D01*
X94698Y-14802D01*
X95525Y-15355D01*
X96500Y-15549D01*
X97475Y-15355D01*
X98302Y-14802D01*
X98855Y-13975D01*
X98966Y-13419D01*
X99237Y-13332D01*
X99493Y-13331D01*
X100004Y-13996D01*
X100735Y-14557D01*
X101586Y-14910D01*
X102500Y-15030D01*
X103414Y-14910D01*
X104265Y-14557D01*
X104996Y-13996D01*
X105557Y-13265D01*
X105910Y-12414D01*
X106030Y-11500D01*
X105910Y-10586D01*
X105730Y-10153D01*
X106845Y-9039D01*
X130704D01*
X130803Y-9539D01*
X130731Y-9569D01*
X129791Y-10291D01*
X129069Y-11231D01*
X128616Y-12325D01*
X128461Y-13500D01*
X128616Y-14675D01*
X129069Y-15769D01*
X129791Y-16709D01*
X130731Y-17431D01*
X131825Y-17884D01*
X133000Y-18039D01*
X134175Y-17884D01*
X135269Y-17431D01*
X136167Y-16742D01*
X136498Y-17119D01*
X128155Y-25461D01*
X100526D01*
X100431Y-25231D01*
X99709Y-24291D01*
X98769Y-23569D01*
X97675Y-23116D01*
X96500Y-22961D01*
X95325Y-23116D01*
X94231Y-23569D01*
X93291Y-24291D01*
X92569Y-25231D01*
X92474Y-25461D01*
X75906D01*
X75871Y-25195D01*
X75367Y-23978D01*
X74566Y-22934D01*
X73522Y-22132D01*
X72305Y-21629D01*
X71000Y-21457D01*
X69695Y-21629D01*
X68478Y-22132D01*
X67434Y-22934D01*
X66632Y-23978D01*
X66129Y-25195D01*
X65957Y-26500D01*
X66129Y-27805D01*
X66632Y-29022D01*
X67434Y-30066D01*
X68478Y-30867D01*
X69695Y-31371D01*
X71000Y-31543D01*
X72305Y-31371D01*
X73522Y-30867D01*
X74566Y-30066D01*
X74970Y-29539D01*
X92474D01*
X92569Y-29769D01*
X93291Y-30709D01*
X94231Y-31431D01*
X95325Y-31884D01*
X96500Y-32039D01*
X97675Y-31884D01*
X98769Y-31431D01*
X99709Y-30709D01*
X100431Y-29769D01*
X100526Y-29539D01*
X129000D01*
X129780Y-29384D01*
X130442Y-28942D01*
X141595Y-17789D01*
X141825Y-17884D01*
X143000Y-18039D01*
X144175Y-17884D01*
X145269Y-17431D01*
X146209Y-16709D01*
X146931Y-15769D01*
X147384Y-14675D01*
X147539Y-13500D01*
X147384Y-12325D01*
X146931Y-11231D01*
X146242Y-10333D01*
X146619Y-10002D01*
X148500Y-11884D01*
Y-18000D01*
X157457D01*
Y-67687D01*
X156957Y-67850D01*
X156022Y-67133D01*
X154805Y-66629D01*
X153500Y-66457D01*
X152195Y-66629D01*
X150978Y-67133D01*
X149934Y-67934D01*
X149133Y-68978D01*
X148629Y-70195D01*
X148457Y-71500D01*
X148629Y-72805D01*
X149133Y-74022D01*
X149934Y-75066D01*
X150978Y-75867D01*
X152195Y-76371D01*
X153500Y-76543D01*
X154805Y-76371D01*
X156022Y-75867D01*
X156957Y-75150D01*
X157457Y-75313D01*
Y-106593D01*
X156957Y-106727D01*
X155721Y-105279D01*
X154165Y-103950D01*
X152420Y-102881D01*
X150530Y-102098D01*
X148540Y-101620D01*
X148095Y-101585D01*
X148015Y-101077D01*
X148522Y-100867D01*
X149566Y-100066D01*
X150367Y-99022D01*
X150871Y-97805D01*
X150977Y-97000D01*
X146000D01*
X141023D01*
X141129Y-97805D01*
X141632Y-99022D01*
X142434Y-100066D01*
X143478Y-100867D01*
X144203Y-101168D01*
X144162Y-101692D01*
X142470Y-102098D01*
X140580Y-102881D01*
X138835Y-103950D01*
X137279Y-105279D01*
X135950Y-106835D01*
X134881Y-108580D01*
X134098Y-110470D01*
X133620Y-112460D01*
X133460Y-114500D01*
X133620Y-116540D01*
X134098Y-118530D01*
X134881Y-120420D01*
X135950Y-122165D01*
X137279Y-123721D01*
X138835Y-125050D01*
X140580Y-126119D01*
X142470Y-126902D01*
X144460Y-127380D01*
X146500Y-127540D01*
X148540Y-127380D01*
X150530Y-126902D01*
X152420Y-126119D01*
X154165Y-125050D01*
X155721Y-123721D01*
X156957Y-122274D01*
X157457Y-122407D01*
Y-131957D01*
X70588D01*
X70341Y-131457D01*
X70776Y-130891D01*
X71153Y-129979D01*
X71282Y-129000D01*
X71153Y-128021D01*
X70776Y-127109D01*
X70174Y-126326D01*
X69391Y-125724D01*
X68479Y-125347D01*
X67500Y-125218D01*
X66521Y-125347D01*
X65609Y-125724D01*
X64825Y-126326D01*
X64224Y-127109D01*
X63846Y-128021D01*
X63718Y-129000D01*
X63846Y-129979D01*
X64224Y-130891D01*
X64658Y-131457D01*
X64412Y-131957D01*
X60588D01*
X60342Y-131457D01*
X60776Y-130891D01*
X61154Y-129979D01*
X61282Y-129000D01*
X61154Y-128021D01*
X60776Y-127109D01*
X60175Y-126326D01*
X59391Y-125724D01*
X58479Y-125347D01*
X57500Y-125218D01*
X56521Y-125347D01*
X55609Y-125724D01*
X54826Y-126326D01*
X54224Y-127109D01*
X53847Y-128021D01*
X53718Y-129000D01*
X53847Y-129979D01*
X54224Y-130891D01*
X54659Y-131457D01*
X54412Y-131957D01*
X50588D01*
X50341Y-131457D01*
X50776Y-130891D01*
X51153Y-129979D01*
X51282Y-129000D01*
X51153Y-128021D01*
X50776Y-127109D01*
X50174Y-126326D01*
X49391Y-125724D01*
X48479Y-125347D01*
X47500Y-125218D01*
X46521Y-125347D01*
X45609Y-125724D01*
X44826Y-126326D01*
X44224Y-127109D01*
X43846Y-128021D01*
X43718Y-129000D01*
X43846Y-129979D01*
X44224Y-130891D01*
X44658Y-131457D01*
X44412Y-131957D01*
X40588D01*
X40341Y-131457D01*
X40776Y-130891D01*
X41153Y-129979D01*
X41282Y-129000D01*
X41153Y-128021D01*
X40776Y-127109D01*
X40174Y-126326D01*
X39391Y-125724D01*
X38479Y-125347D01*
X37500Y-125218D01*
X36521Y-125347D01*
X35609Y-125724D01*
X34826Y-126326D01*
X34224Y-127109D01*
X33847Y-128021D01*
X33718Y-129000D01*
X33847Y-129979D01*
X34224Y-130891D01*
X34659Y-131457D01*
X34412Y-131957D01*
X30588D01*
X30342Y-131457D01*
X30776Y-130891D01*
X31154Y-129979D01*
X31282Y-129000D01*
X31154Y-128021D01*
X30776Y-127109D01*
X30174Y-126326D01*
X29391Y-125724D01*
X28479Y-125347D01*
X27500Y-125218D01*
X26521Y-125347D01*
X25609Y-125724D01*
X24825Y-126326D01*
X24224Y-127109D01*
X23846Y-128021D01*
X23718Y-129000D01*
X23846Y-129979D01*
X24224Y-130891D01*
X24658Y-131457D01*
X24412Y-131957D01*
X20588D01*
X20342Y-131457D01*
X20776Y-130891D01*
X21154Y-129979D01*
X21282Y-129000D01*
X21154Y-128021D01*
X20776Y-127109D01*
X20175Y-126326D01*
X19391Y-125724D01*
X18479Y-125347D01*
X17500Y-125218D01*
X16521Y-125347D01*
X15609Y-125724D01*
X14826Y-126326D01*
X14224Y-127109D01*
X13847Y-128021D01*
X13718Y-129000D01*
X13847Y-129979D01*
X14224Y-130891D01*
X14659Y-131457D01*
X14412Y-131957D01*
X11250D01*
Y-129500D01*
X7500D01*
Y-129000D01*
X7000D01*
Y-125250D01*
X5043D01*
Y-5043D01*
X8500D01*
Y-8000D01*
X13000D01*
X17500D01*
Y-5043D01*
X104429D01*
X104580Y-5543D01*
D02*
G37*
%LPC*%
G36*
X104500Y-94470D02*
X103586Y-94590D01*
X102735Y-94943D01*
X102004Y-95504D01*
X101443Y-96235D01*
X101090Y-97086D01*
X100970Y-98000D01*
X101090Y-98914D01*
X101443Y-99765D01*
X102004Y-100496D01*
X102735Y-101057D01*
X103586Y-101410D01*
X104500Y-101530D01*
X105414Y-101410D01*
X106265Y-101057D01*
X106996Y-100496D01*
X107557Y-99765D01*
X107910Y-98914D01*
X108030Y-98000D01*
X107910Y-97086D01*
X107557Y-96235D01*
X106996Y-95504D01*
X106265Y-94943D01*
X105414Y-94590D01*
X104500Y-94470D01*
D02*
G37*
G36*
X15000Y-95623D02*
X14195Y-95729D01*
X12978Y-96232D01*
X11934Y-97034D01*
X11133Y-98078D01*
X10629Y-99295D01*
X10523Y-100100D01*
X15000D01*
Y-95623D01*
D02*
G37*
G36*
X16000D02*
Y-100100D01*
X20477D01*
X20371Y-99295D01*
X19868Y-98078D01*
X19066Y-97034D01*
X18022Y-96232D01*
X16805Y-95729D01*
X16000Y-95623D01*
D02*
G37*
G36*
X15000Y-101100D02*
X10523D01*
X10629Y-101905D01*
X11133Y-103122D01*
X11934Y-104166D01*
X12978Y-104967D01*
X14195Y-105471D01*
X15000Y-105577D01*
Y-101100D01*
D02*
G37*
G36*
X20477D02*
X16000D01*
Y-105577D01*
X16805Y-105471D01*
X18022Y-104967D01*
X19066Y-104166D01*
X19868Y-103122D01*
X20371Y-101905D01*
X20477Y-101100D01*
D02*
G37*
G36*
X126000Y-91457D02*
X124695Y-91629D01*
X123478Y-92133D01*
X122434Y-92934D01*
X121633Y-93978D01*
X121129Y-95195D01*
X120957Y-96500D01*
X121129Y-97805D01*
X121633Y-99022D01*
X122434Y-100066D01*
X123478Y-100867D01*
X124695Y-101371D01*
X126000Y-101543D01*
X127305Y-101371D01*
X128522Y-100867D01*
X129566Y-100066D01*
X130368Y-99022D01*
X130871Y-97805D01*
X131043Y-96500D01*
X130871Y-95195D01*
X130368Y-93978D01*
X129566Y-92934D01*
X128522Y-92133D01*
X127305Y-91629D01*
X126000Y-91457D01*
D02*
G37*
G36*
X15250Y-59713D02*
X14750D01*
X13641Y-59859D01*
X12607Y-60288D01*
X11719Y-60969D01*
X11038Y-61857D01*
X10609Y-62890D01*
X10463Y-64000D01*
X10609Y-65109D01*
X11038Y-66143D01*
X11719Y-67031D01*
X12607Y-67712D01*
X13471Y-68070D01*
Y-71000D01*
X13587Y-71585D01*
X13919Y-72081D01*
X23971Y-82134D01*
Y-86800D01*
X24087Y-87385D01*
X24419Y-87881D01*
X30619Y-94081D01*
X31115Y-94413D01*
X31700Y-94529D01*
X72493D01*
X72622Y-95029D01*
X72004Y-95504D01*
X71443Y-96235D01*
X71090Y-97086D01*
X70970Y-98000D01*
X71090Y-98914D01*
X71443Y-99765D01*
X72004Y-100496D01*
X72735Y-101057D01*
X73586Y-101410D01*
X74500Y-101530D01*
X75414Y-101410D01*
X76265Y-101057D01*
X76996Y-100496D01*
X77557Y-99765D01*
X77910Y-98914D01*
X78030Y-98000D01*
X77910Y-97086D01*
X77557Y-96235D01*
X76996Y-95504D01*
X76378Y-95029D01*
X76507Y-94529D01*
X99500D01*
X100085Y-94413D01*
X100581Y-94081D01*
X103351Y-91312D01*
X103586Y-91410D01*
X104500Y-91530D01*
X105414Y-91410D01*
X106265Y-91057D01*
X106996Y-90496D01*
X107557Y-89765D01*
X107910Y-88914D01*
X108030Y-88000D01*
X107910Y-87086D01*
X107557Y-86235D01*
X106996Y-85504D01*
X106265Y-84943D01*
X105414Y-84590D01*
X104500Y-84470D01*
X103586Y-84590D01*
X102735Y-84943D01*
X102004Y-85504D01*
X101443Y-86235D01*
X101090Y-87086D01*
X100970Y-88000D01*
X101090Y-88914D01*
X101188Y-89149D01*
X98866Y-91471D01*
X76507D01*
X76378Y-90971D01*
X76996Y-90496D01*
X77557Y-89765D01*
X77910Y-88914D01*
X78030Y-88000D01*
X77910Y-87086D01*
X77557Y-86235D01*
X76996Y-85504D01*
X76265Y-84943D01*
X75414Y-84590D01*
X74500Y-84470D01*
X73586Y-84590D01*
X72735Y-84943D01*
X72004Y-85504D01*
X71443Y-86235D01*
X71090Y-87086D01*
X70970Y-88000D01*
X71090Y-88914D01*
X71443Y-89765D01*
X72004Y-90496D01*
X72622Y-90971D01*
X72493Y-91471D01*
X32333D01*
X27029Y-86167D01*
Y-81500D01*
X26913Y-80915D01*
X26581Y-80419D01*
X16529Y-70367D01*
Y-68070D01*
X17393Y-67712D01*
X18281Y-67031D01*
X18962Y-66143D01*
X19391Y-65109D01*
X19537Y-64000D01*
X19391Y-62890D01*
X18962Y-61857D01*
X18281Y-60969D01*
X17393Y-60288D01*
X16360Y-59859D01*
X15250Y-59713D01*
D02*
G37*
G36*
X56500Y-76470D02*
X55586Y-76590D01*
X54735Y-76943D01*
X54004Y-77504D01*
X53443Y-78235D01*
X53090Y-79086D01*
X52970Y-80000D01*
X53090Y-80914D01*
X53443Y-81765D01*
X54004Y-82496D01*
X54735Y-83057D01*
X55586Y-83410D01*
X56500Y-83530D01*
X57414Y-83410D01*
X58265Y-83057D01*
X58996Y-82496D01*
X59557Y-81765D01*
X59910Y-80914D01*
X60030Y-80000D01*
X59910Y-79086D01*
X59557Y-78235D01*
X58996Y-77504D01*
X58265Y-76943D01*
X57414Y-76590D01*
X56500Y-76470D01*
D02*
G37*
G36*
X46000Y-80500D02*
X43036D01*
X43090Y-80914D01*
X43443Y-81765D01*
X44004Y-82496D01*
X44735Y-83057D01*
X45586Y-83410D01*
X46000Y-83464D01*
Y-80500D01*
D02*
G37*
G36*
X145500Y-91523D02*
X144695Y-91629D01*
X143478Y-92133D01*
X142434Y-92934D01*
X141632Y-93978D01*
X141129Y-95195D01*
X141023Y-96000D01*
X145500D01*
Y-91523D01*
D02*
G37*
G36*
X146500D02*
Y-96000D01*
X150977D01*
X150871Y-95195D01*
X150367Y-93978D01*
X149566Y-92934D01*
X148522Y-92133D01*
X147305Y-91629D01*
X146500Y-91523D01*
D02*
G37*
G36*
X15500Y-81457D02*
X14195Y-81629D01*
X12978Y-82133D01*
X11934Y-82934D01*
X11133Y-83978D01*
X10629Y-85195D01*
X10457Y-86500D01*
X10629Y-87805D01*
X11133Y-89022D01*
X11934Y-90066D01*
X12978Y-90868D01*
X14195Y-91371D01*
X15500Y-91543D01*
X16805Y-91371D01*
X18022Y-90868D01*
X19066Y-90066D01*
X19868Y-89022D01*
X20371Y-87805D01*
X20543Y-86500D01*
X20371Y-85195D01*
X19868Y-83978D01*
X19066Y-82934D01*
X18022Y-82133D01*
X16805Y-81629D01*
X15500Y-81457D01*
D02*
G37*
G36*
X104500Y-104470D02*
X103586Y-104590D01*
X102735Y-104943D01*
X102004Y-105504D01*
X101443Y-106235D01*
X101090Y-107086D01*
X100970Y-108000D01*
X101090Y-108914D01*
X101443Y-109765D01*
X102004Y-110496D01*
X102735Y-111057D01*
X103586Y-111410D01*
X104500Y-111530D01*
X105414Y-111410D01*
X106265Y-111057D01*
X106996Y-110496D01*
X107557Y-109765D01*
X107910Y-108914D01*
X108030Y-108000D01*
X107910Y-107086D01*
X107557Y-106235D01*
X106996Y-105504D01*
X106265Y-104943D01*
X105414Y-104590D01*
X104500Y-104470D01*
D02*
G37*
G36*
X77964Y-118500D02*
X75000D01*
Y-121464D01*
X75414Y-121410D01*
X76265Y-121057D01*
X76996Y-120496D01*
X77557Y-119765D01*
X77910Y-118914D01*
X77964Y-118500D01*
D02*
G37*
G36*
X65000Y-110970D02*
X64086Y-111090D01*
X63235Y-111443D01*
X62504Y-112004D01*
X61943Y-112735D01*
X61590Y-113586D01*
X61470Y-114500D01*
X61590Y-115414D01*
X61943Y-116265D01*
X62504Y-116996D01*
X63235Y-117557D01*
X64086Y-117910D01*
X65000Y-118030D01*
X65914Y-117910D01*
X66765Y-117557D01*
X67496Y-116996D01*
X68057Y-116265D01*
X68410Y-115414D01*
X68530Y-114500D01*
X68410Y-113586D01*
X68057Y-112735D01*
X67496Y-112004D01*
X66765Y-111443D01*
X65914Y-111090D01*
X65000Y-110970D01*
D02*
G37*
G36*
X44500Y-115000D02*
X41536D01*
X41590Y-115414D01*
X41943Y-116265D01*
X42504Y-116996D01*
X43235Y-117557D01*
X44086Y-117910D01*
X44500Y-117964D01*
Y-115000D01*
D02*
G37*
G36*
X11250Y-125250D02*
X8000D01*
Y-128500D01*
X11250D01*
Y-125250D01*
D02*
G37*
G36*
X104500Y-114470D02*
X103586Y-114590D01*
X102735Y-114943D01*
X102004Y-115504D01*
X101443Y-116235D01*
X101090Y-117086D01*
X100970Y-118000D01*
X101090Y-118914D01*
X101443Y-119765D01*
X102004Y-120496D01*
X102735Y-121057D01*
X103586Y-121410D01*
X104500Y-121530D01*
X105414Y-121410D01*
X106265Y-121057D01*
X106996Y-120496D01*
X107557Y-119765D01*
X107910Y-118914D01*
X108030Y-118000D01*
X107910Y-117086D01*
X107557Y-116235D01*
X106996Y-115504D01*
X106265Y-114943D01*
X105414Y-114590D01*
X104500Y-114470D01*
D02*
G37*
G36*
X74000Y-118500D02*
X71036D01*
X71090Y-118914D01*
X71443Y-119765D01*
X72004Y-120496D01*
X72735Y-121057D01*
X73586Y-121410D01*
X74000Y-121464D01*
Y-118500D01*
D02*
G37*
G36*
X44500Y-111036D02*
X44086Y-111090D01*
X43235Y-111443D01*
X42504Y-112004D01*
X41943Y-112735D01*
X41590Y-113586D01*
X41536Y-114000D01*
X44500D01*
Y-111036D01*
D02*
G37*
G36*
X45500D02*
Y-114000D01*
X48464D01*
X48410Y-113586D01*
X48057Y-112735D01*
X47496Y-112004D01*
X46765Y-111443D01*
X45914Y-111090D01*
X45500Y-111036D01*
D02*
G37*
G36*
X74500Y-104470D02*
X73586Y-104590D01*
X72735Y-104943D01*
X72004Y-105504D01*
X71443Y-106235D01*
X71090Y-107086D01*
X70970Y-108000D01*
X71090Y-108914D01*
X71443Y-109765D01*
X72004Y-110496D01*
X72735Y-111057D01*
X73586Y-111410D01*
X74500Y-111530D01*
X75414Y-111410D01*
X76265Y-111057D01*
X76996Y-110496D01*
X77557Y-109765D01*
X77910Y-108914D01*
X78030Y-108000D01*
X77910Y-107086D01*
X77557Y-106235D01*
X76996Y-105504D01*
X76265Y-104943D01*
X75414Y-104590D01*
X74500Y-104470D01*
D02*
G37*
G36*
X48464Y-115000D02*
X45500D01*
Y-117964D01*
X45914Y-117910D01*
X46765Y-117557D01*
X47496Y-116996D01*
X48057Y-116265D01*
X48410Y-115414D01*
X48464Y-115000D01*
D02*
G37*
G36*
X74000Y-114536D02*
X73586Y-114590D01*
X72735Y-114943D01*
X72004Y-115504D01*
X71443Y-116235D01*
X71090Y-117086D01*
X71036Y-117500D01*
X74000D01*
Y-114536D01*
D02*
G37*
G36*
X75000D02*
Y-117500D01*
X77964D01*
X77910Y-117086D01*
X77557Y-116235D01*
X76996Y-115504D01*
X76265Y-114943D01*
X75414Y-114590D01*
X75000Y-114536D01*
D02*
G37*
G36*
X49964Y-80500D02*
X47000D01*
Y-83464D01*
X47414Y-83410D01*
X48265Y-83057D01*
X48996Y-82496D01*
X49557Y-81765D01*
X49910Y-80914D01*
X49964Y-80500D01*
D02*
G37*
G36*
X96000Y-33027D02*
X95325Y-33116D01*
X94231Y-33569D01*
X93291Y-34291D01*
X92569Y-35231D01*
X92116Y-36325D01*
X92027Y-37000D01*
X96000D01*
Y-33027D01*
D02*
G37*
G36*
X97000D02*
Y-37000D01*
X100973D01*
X100884Y-36325D01*
X100431Y-35231D01*
X99709Y-34291D01*
X98769Y-33569D01*
X97675Y-33116D01*
X97000Y-33027D01*
D02*
G37*
G36*
X13000Y-23961D02*
X11825Y-24116D01*
X10731Y-24569D01*
X9791Y-25291D01*
X9069Y-26231D01*
X8616Y-27325D01*
X8461Y-28500D01*
X8616Y-29675D01*
X9069Y-30769D01*
X9791Y-31709D01*
X10731Y-32431D01*
X11825Y-32884D01*
X13000Y-33039D01*
X14175Y-32884D01*
X15269Y-32431D01*
X16209Y-31709D01*
X16931Y-30769D01*
X17384Y-29675D01*
X17539Y-28500D01*
X17384Y-27325D01*
X16931Y-26231D01*
X16209Y-25291D01*
X15269Y-24569D01*
X14175Y-24116D01*
X13000Y-23961D01*
D02*
G37*
G36*
X146500Y-41523D02*
Y-46000D01*
X150977D01*
X150871Y-45195D01*
X150367Y-43978D01*
X149566Y-42934D01*
X148522Y-42132D01*
X147305Y-41629D01*
X146500Y-41523D01*
D02*
G37*
G36*
X96000Y-38000D02*
X92027D01*
X92116Y-38675D01*
X92569Y-39769D01*
X93291Y-40709D01*
X94231Y-41431D01*
X95325Y-41884D01*
X96000Y-41973D01*
Y-38000D01*
D02*
G37*
G36*
X100973D02*
X97000D01*
Y-41973D01*
X97675Y-41884D01*
X98769Y-41431D01*
X99709Y-40709D01*
X100431Y-39769D01*
X100884Y-38675D01*
X100973Y-38000D01*
D02*
G37*
G36*
X12500Y-9000D02*
X8500D01*
Y-13000D01*
X12500D01*
Y-9000D01*
D02*
G37*
G36*
X17500D02*
X13500D01*
Y-13000D01*
X17500D01*
Y-9000D01*
D02*
G37*
G36*
X90000Y-8036D02*
X89586Y-8090D01*
X88735Y-8443D01*
X88004Y-9004D01*
X87443Y-9735D01*
X87090Y-10586D01*
X87036Y-11000D01*
X90000D01*
Y-8036D01*
D02*
G37*
G36*
X46500Y-21457D02*
X45195Y-21629D01*
X43978Y-22132D01*
X42934Y-22934D01*
X42132Y-23978D01*
X41629Y-25195D01*
X41457Y-26500D01*
X41629Y-27805D01*
X42132Y-29022D01*
X42934Y-30066D01*
X43978Y-30867D01*
X45195Y-31371D01*
X46500Y-31543D01*
X47805Y-31371D01*
X49022Y-30867D01*
X50066Y-30066D01*
X50867Y-29022D01*
X51371Y-27805D01*
X51543Y-26500D01*
X51371Y-25195D01*
X50867Y-23978D01*
X50066Y-22934D01*
X49022Y-22132D01*
X47805Y-21629D01*
X46500Y-21457D01*
D02*
G37*
G36*
X13000Y-13961D02*
X11825Y-14116D01*
X10731Y-14569D01*
X9791Y-15291D01*
X9069Y-16231D01*
X8616Y-17325D01*
X8461Y-18500D01*
X8616Y-19675D01*
X9069Y-20769D01*
X9791Y-21709D01*
X10731Y-22431D01*
X11825Y-22884D01*
X13000Y-23039D01*
X14175Y-22884D01*
X15269Y-22431D01*
X16209Y-21709D01*
X16931Y-20769D01*
X17384Y-19675D01*
X17456Y-19129D01*
X81967D01*
X82688Y-19851D01*
X82590Y-20086D01*
X82470Y-21000D01*
X82590Y-21914D01*
X82943Y-22765D01*
X83504Y-23496D01*
X84235Y-24057D01*
X85086Y-24410D01*
X86000Y-24530D01*
X86914Y-24410D01*
X87765Y-24057D01*
X88496Y-23496D01*
X89057Y-22765D01*
X89410Y-21914D01*
X89530Y-21000D01*
X89410Y-20086D01*
X89057Y-19235D01*
X88496Y-18504D01*
X87765Y-17943D01*
X86914Y-17590D01*
X86000Y-17470D01*
X85086Y-17590D01*
X84851Y-17688D01*
X83681Y-16519D01*
X83185Y-16187D01*
X82600Y-16071D01*
X16808D01*
X16209Y-15291D01*
X15269Y-14569D01*
X14175Y-14116D01*
X13000Y-13961D01*
D02*
G37*
G36*
X90000Y-12000D02*
X87036D01*
X87090Y-12414D01*
X87443Y-13265D01*
X88004Y-13996D01*
X88735Y-14557D01*
X89586Y-14910D01*
X90000Y-14964D01*
Y-12000D01*
D02*
G37*
G36*
X145500Y-41523D02*
X144695Y-41629D01*
X143478Y-42132D01*
X142434Y-42934D01*
X141632Y-43978D01*
X141129Y-45195D01*
X141023Y-46000D01*
X145500D01*
Y-41523D01*
D02*
G37*
G36*
X24500Y-64500D02*
X20500D01*
Y-68000D01*
X24500D01*
Y-64500D01*
D02*
G37*
G36*
X29500D02*
X25500D01*
Y-68000D01*
X29500D01*
Y-64500D01*
D02*
G37*
G36*
X45500Y-62500D02*
X42536D01*
X42590Y-62914D01*
X42943Y-63765D01*
X43504Y-64496D01*
X44235Y-65057D01*
X45086Y-65410D01*
X45500Y-65464D01*
Y-62500D01*
D02*
G37*
G36*
X46000Y-76536D02*
X45586Y-76590D01*
X44735Y-76943D01*
X44004Y-77504D01*
X43443Y-78235D01*
X43090Y-79086D01*
X43036Y-79500D01*
X46000D01*
Y-76536D01*
D02*
G37*
G36*
X47000D02*
Y-79500D01*
X49964D01*
X49910Y-79086D01*
X49557Y-78235D01*
X48996Y-77504D01*
X48265Y-76943D01*
X47414Y-76590D01*
X47000Y-76536D01*
D02*
G37*
G36*
X118500Y-66457D02*
X117195Y-66629D01*
X115978Y-67133D01*
X114934Y-67934D01*
X114132Y-68978D01*
X113629Y-70195D01*
X113457Y-71500D01*
X113629Y-72805D01*
X114132Y-74022D01*
X114934Y-75066D01*
X115978Y-75867D01*
X117195Y-76371D01*
X118500Y-76543D01*
X119805Y-76371D01*
X121022Y-75867D01*
X122066Y-75066D01*
X122868Y-74022D01*
X123371Y-72805D01*
X123543Y-71500D01*
X123371Y-70195D01*
X122868Y-68978D01*
X122066Y-67934D01*
X121022Y-67133D01*
X119805Y-66629D01*
X118500Y-66457D01*
D02*
G37*
G36*
X150977Y-47000D02*
X146500D01*
Y-51477D01*
X147305Y-51371D01*
X148522Y-50867D01*
X149566Y-50066D01*
X150367Y-49022D01*
X150871Y-47805D01*
X150977Y-47000D01*
D02*
G37*
G36*
X15250Y-39713D02*
X14750D01*
X13641Y-39859D01*
X12607Y-40288D01*
X11719Y-40969D01*
X11038Y-41857D01*
X10609Y-42891D01*
X10463Y-44000D01*
X10609Y-45110D01*
X11038Y-46143D01*
X11719Y-47031D01*
X12607Y-47712D01*
X13641Y-48141D01*
X14750Y-48287D01*
X15250D01*
X16360Y-48141D01*
X17393Y-47712D01*
X18281Y-47031D01*
X18962Y-46143D01*
X19391Y-45110D01*
X19537Y-44000D01*
X19391Y-42891D01*
X18962Y-41857D01*
X18281Y-40969D01*
X17393Y-40288D01*
X16360Y-39859D01*
X15250Y-39713D01*
D02*
G37*
G36*
X25250D02*
X24750D01*
X23641Y-39859D01*
X22607Y-40288D01*
X21719Y-40969D01*
X21038Y-41857D01*
X20609Y-42891D01*
X20463Y-44000D01*
X20609Y-45110D01*
X21038Y-46143D01*
X21719Y-47031D01*
X22607Y-47712D01*
X23641Y-48141D01*
X24750Y-48287D01*
X25250D01*
X26360Y-48141D01*
X27393Y-47712D01*
X28281Y-47031D01*
X28962Y-46143D01*
X29391Y-45110D01*
X29537Y-44000D01*
X29391Y-42891D01*
X28962Y-41857D01*
X28281Y-40969D01*
X27393Y-40288D01*
X26360Y-39859D01*
X25250Y-39713D01*
D02*
G37*
G36*
X45500Y-58536D02*
X45086Y-58590D01*
X44235Y-58943D01*
X43504Y-59504D01*
X42943Y-60235D01*
X42590Y-61086D01*
X42536Y-61500D01*
X45500D01*
Y-58536D01*
D02*
G37*
G36*
X126000Y-41457D02*
X124695Y-41629D01*
X123478Y-42132D01*
X122434Y-42934D01*
X121633Y-43978D01*
X121129Y-45195D01*
X120957Y-46500D01*
X121129Y-47805D01*
X121540Y-48797D01*
X108867Y-61471D01*
X106507D01*
X106378Y-60971D01*
X106996Y-60496D01*
X107557Y-59765D01*
X107910Y-58914D01*
X108030Y-58000D01*
X107910Y-57086D01*
X107557Y-56235D01*
X106996Y-55504D01*
X106265Y-54943D01*
X105414Y-54590D01*
X104500Y-54470D01*
X103586Y-54590D01*
X103351Y-54688D01*
X99581Y-50919D01*
X99085Y-50587D01*
X98500Y-50471D01*
X27632D01*
X27393Y-50288D01*
X26360Y-49859D01*
X25250Y-49713D01*
X24750D01*
X23641Y-49859D01*
X22607Y-50288D01*
X21719Y-50969D01*
X21038Y-51857D01*
X20609Y-52890D01*
X20463Y-54000D01*
X20609Y-55110D01*
X21038Y-56143D01*
X21672Y-56971D01*
X21556Y-57471D01*
X20633D01*
X19063Y-55900D01*
X19391Y-55110D01*
X19537Y-54000D01*
X19391Y-52890D01*
X18962Y-51857D01*
X18281Y-50969D01*
X17393Y-50288D01*
X16360Y-49859D01*
X15250Y-49713D01*
X14750D01*
X13641Y-49859D01*
X12607Y-50288D01*
X11719Y-50969D01*
X11038Y-51857D01*
X10609Y-52890D01*
X10463Y-54000D01*
X10609Y-55110D01*
X11038Y-56143D01*
X11719Y-57031D01*
X12607Y-57712D01*
X13641Y-58141D01*
X14750Y-58287D01*
X15250D01*
X16360Y-58141D01*
X16797Y-57960D01*
X18919Y-60081D01*
X19415Y-60413D01*
X20000Y-60529D01*
X20500D01*
Y-63500D01*
X25000D01*
X29500D01*
Y-60529D01*
X39000D01*
X39585Y-60413D01*
X40081Y-60081D01*
X42634Y-57529D01*
X51557D01*
X51606Y-58029D01*
X51025Y-58145D01*
X50198Y-58698D01*
X49645Y-59525D01*
X49534Y-60080D01*
X49264Y-60168D01*
X49007Y-60169D01*
X48496Y-59504D01*
X47765Y-58943D01*
X46914Y-58590D01*
X46500Y-58536D01*
Y-62000D01*
Y-65464D01*
X46914Y-65410D01*
X47765Y-65057D01*
X48496Y-64496D01*
X49007Y-63831D01*
X49264Y-63832D01*
X49534Y-63920D01*
X49645Y-64476D01*
X50198Y-65302D01*
X50471Y-65485D01*
Y-70000D01*
X50587Y-70585D01*
X50919Y-71081D01*
X53919Y-74081D01*
X54415Y-74413D01*
X55000Y-74529D01*
X72493D01*
X72622Y-75029D01*
X72004Y-75504D01*
X71443Y-76235D01*
X71090Y-77086D01*
X70970Y-78000D01*
X71090Y-78914D01*
X71188Y-79149D01*
X64867Y-85471D01*
X41155D01*
X41057Y-85235D01*
X40496Y-84504D01*
X39765Y-83943D01*
X38914Y-83590D01*
X38000Y-83470D01*
X37086Y-83590D01*
X36235Y-83943D01*
X35504Y-84504D01*
X34943Y-85235D01*
X34590Y-86086D01*
X34470Y-87000D01*
X34590Y-87914D01*
X34943Y-88765D01*
X35504Y-89496D01*
X36235Y-90057D01*
X37086Y-90410D01*
X38000Y-90530D01*
X38914Y-90410D01*
X39765Y-90057D01*
X40496Y-89496D01*
X41057Y-88765D01*
X41155Y-88529D01*
X65500D01*
X66085Y-88413D01*
X66581Y-88081D01*
X73351Y-81312D01*
X73586Y-81410D01*
X74500Y-81530D01*
X75414Y-81410D01*
X76265Y-81057D01*
X76996Y-80496D01*
X77557Y-79765D01*
X77910Y-78914D01*
X78030Y-78000D01*
X77910Y-77086D01*
X77557Y-76235D01*
X76996Y-75504D01*
X76378Y-75029D01*
X76507Y-74529D01*
X98866D01*
X101188Y-76851D01*
X101090Y-77086D01*
X100970Y-78000D01*
X101090Y-78914D01*
X101443Y-79765D01*
X102004Y-80496D01*
X102735Y-81057D01*
X103586Y-81410D01*
X104500Y-81530D01*
X105414Y-81410D01*
X106265Y-81057D01*
X106996Y-80496D01*
X107557Y-79765D01*
X107910Y-78914D01*
X108030Y-78000D01*
X107910Y-77086D01*
X107557Y-76235D01*
X106996Y-75504D01*
X106265Y-74943D01*
X105414Y-74590D01*
X104500Y-74470D01*
X103586Y-74590D01*
X103351Y-74688D01*
X100581Y-71919D01*
X100085Y-71587D01*
X99500Y-71471D01*
X76507D01*
X76378Y-70971D01*
X76996Y-70496D01*
X77557Y-69765D01*
X77910Y-68914D01*
X78030Y-68000D01*
X77910Y-67086D01*
X77812Y-66851D01*
X80133Y-64529D01*
X102493D01*
X102622Y-65029D01*
X102004Y-65504D01*
X101443Y-66235D01*
X101090Y-67086D01*
X100970Y-68000D01*
X101090Y-68914D01*
X101443Y-69765D01*
X102004Y-70496D01*
X102735Y-71057D01*
X103586Y-71410D01*
X104500Y-71530D01*
X105414Y-71410D01*
X106265Y-71057D01*
X106996Y-70496D01*
X107557Y-69765D01*
X107910Y-68914D01*
X108030Y-68000D01*
X107910Y-67086D01*
X107557Y-66235D01*
X106996Y-65504D01*
X106378Y-65029D01*
X106507Y-64529D01*
X109500D01*
X110085Y-64413D01*
X110581Y-64081D01*
X123703Y-50960D01*
X124695Y-51371D01*
X126000Y-51543D01*
X127305Y-51371D01*
X128522Y-50867D01*
X129566Y-50066D01*
X130368Y-49022D01*
X130871Y-47805D01*
X131043Y-46500D01*
X130871Y-45195D01*
X130368Y-43978D01*
X129566Y-42934D01*
X128522Y-42132D01*
X127305Y-41629D01*
X126000Y-41457D01*
D02*
G37*
G36*
X145500Y-47000D02*
X141023D01*
X141129Y-47805D01*
X141632Y-49022D01*
X142434Y-50066D01*
X143478Y-50867D01*
X144695Y-51371D01*
X145500Y-51477D01*
Y-47000D01*
D02*
G37*
%LPD*%
D12*
X13900Y-17600D02*
X82600D01*
X13000Y-18500D02*
X13900Y-17600D01*
X25500Y-86800D02*
Y-81500D01*
X15000Y-71000D02*
X25500Y-81500D01*
X15000Y-71000D02*
Y-64000D01*
X25500Y-86800D02*
X31700Y-93000D01*
X65500Y-87000D02*
X74500Y-78000D01*
X38000Y-87000D02*
X65500D01*
X62500Y-56000D02*
X74500Y-68000D01*
X42000Y-56000D02*
X62500D01*
X39000Y-59000D02*
X42000Y-56000D01*
X98500Y-52000D02*
X104500Y-58000D01*
X27000Y-52000D02*
X98500D01*
X25000Y-54000D02*
X27000Y-52000D01*
X20000Y-59000D02*
X39000D01*
X15000Y-54000D02*
X20000Y-59000D01*
X82600Y-17600D02*
X86000Y-21000D01*
X99500Y-73000D02*
X104500Y-78000D01*
X55000Y-73000D02*
X99500D01*
X52000Y-70000D02*
X55000Y-73000D01*
X52000Y-70000D02*
Y-62000D01*
X109500Y-63000D02*
X126000Y-46500D01*
X79500Y-63000D02*
X109500D01*
X74500Y-68000D02*
X79500Y-63000D01*
X31700Y-93000D02*
X99500D01*
X104500Y-88000D01*
D13*
X72000Y-27500D02*
X96500D01*
X71000Y-26500D02*
X72000Y-27500D01*
X146500Y-7000D02*
X153000Y-13500D01*
X106000Y-7000D02*
X146500D01*
X101500Y-11500D02*
X106000Y-7000D01*
X96500Y-27500D02*
X129000D01*
X143000Y-13500D01*
D14*
X90500Y-11500D02*
D03*
X102500D02*
D03*
X74500Y-118000D02*
D03*
Y-108000D02*
D03*
X104500D02*
D03*
X74500Y-98000D02*
D03*
Y-88000D02*
D03*
Y-78000D02*
D03*
Y-68000D02*
D03*
Y-58000D02*
D03*
X104500D02*
D03*
Y-68000D02*
D03*
Y-78000D02*
D03*
Y-88000D02*
D03*
Y-98000D02*
D03*
Y-118000D02*
D03*
X56500Y-80000D02*
D03*
X46500D02*
D03*
X65000Y-114500D02*
D03*
X45000D02*
D03*
X58000Y-62000D02*
D03*
X46000D02*
D03*
X38000Y-87000D02*
D03*
X86000Y-21000D02*
D03*
D15*
X96500Y-11500D02*
D03*
X52000Y-62000D02*
D03*
D16*
X96500Y-27500D02*
D03*
Y-37500D02*
D03*
X133000Y-13500D02*
D03*
X143000D02*
D03*
X13000Y-18500D02*
D03*
Y-28500D02*
D03*
D17*
X67500Y-129000D02*
D03*
X57500D02*
D03*
X47500D02*
D03*
X37500D02*
D03*
X27500D02*
D03*
X17500D02*
D03*
D18*
X7500D02*
D03*
D19*
X146500Y-114500D02*
D03*
D20*
X146000Y-46500D02*
D03*
X126000D02*
D03*
X146000Y-96500D02*
D03*
X126000D02*
D03*
X118500Y-71500D02*
D03*
X153500D02*
D03*
X15500Y-100600D02*
D03*
Y-86500D02*
D03*
X71000Y-26500D02*
D03*
X46500D02*
D03*
D21*
X25000Y-44000D02*
D03*
Y-54000D02*
D03*
X15000Y-44000D02*
D03*
Y-54000D02*
D03*
Y-64000D02*
D03*
D22*
X25000D02*
D03*
D23*
X153000Y-13500D02*
D03*
D24*
X13000Y-8500D02*
D03*
M02*
