G04 Layer_Color=16711935*
%FSLAX25Y25*%
%MOIN*%
G70*
G01*
G75*
%ADD29C,0.05800*%
%ADD30O,0.03800X0.06800*%
%ADD31C,0.07800*%
%ADD32C,0.06300*%
%ADD33R,0.06300X0.06300*%
%ADD34C,0.24800*%
%ADD35C,0.08800*%
%ADD36O,0.07800X0.07300*%
%ADD37R,0.07800X0.06800*%
%ADD38R,0.07800X0.07800*%
%ADD39R,0.07800X0.07800*%
D29*
X90500Y-11500D02*
D03*
X102500D02*
D03*
X74500Y-118000D02*
D03*
Y-108000D02*
D03*
X104500D02*
D03*
X74500Y-98000D02*
D03*
Y-88000D02*
D03*
Y-78000D02*
D03*
Y-68000D02*
D03*
Y-58000D02*
D03*
X104500D02*
D03*
Y-68000D02*
D03*
Y-78000D02*
D03*
Y-88000D02*
D03*
Y-98000D02*
D03*
Y-118000D02*
D03*
X56500Y-80000D02*
D03*
X46500D02*
D03*
X65000Y-114500D02*
D03*
X45000D02*
D03*
X58000Y-62000D02*
D03*
X46000D02*
D03*
X38000Y-87000D02*
D03*
X86000Y-21000D02*
D03*
D30*
X96500Y-11500D02*
D03*
X52000Y-62000D02*
D03*
D31*
X96500Y-27500D02*
D03*
Y-37500D02*
D03*
X133000Y-13500D02*
D03*
X143000D02*
D03*
X13000Y-18500D02*
D03*
Y-28500D02*
D03*
D32*
X67500Y-129000D02*
D03*
X57500D02*
D03*
X47500D02*
D03*
X37500D02*
D03*
X27500D02*
D03*
X17500D02*
D03*
D33*
X7500D02*
D03*
D34*
X146500Y-114500D02*
D03*
D35*
X146000Y-46500D02*
D03*
X126000D02*
D03*
X146000Y-96500D02*
D03*
X126000D02*
D03*
X118500Y-71500D02*
D03*
X153500D02*
D03*
X15500Y-100600D02*
D03*
Y-86500D02*
D03*
X71000Y-26500D02*
D03*
X46500D02*
D03*
D36*
X25000Y-44000D02*
D03*
Y-54000D02*
D03*
X15000Y-44000D02*
D03*
Y-54000D02*
D03*
Y-64000D02*
D03*
D37*
X25000D02*
D03*
D38*
X153000Y-13500D02*
D03*
D39*
X13000Y-8500D02*
D03*
M02*
