G04 Layer_Color=65535*
%FSLAX25Y25*%
%MOIN*%
G70*
G01*
G75*
%ADD12C,0.01000*%
%ADD25C,0.00600*%
%ADD26C,0.00500*%
D12*
X106500Y-11500D02*
G03*
X86500Y-11500I-10000J-0D01*
G01*
X106500Y-32500D02*
G03*
X106500Y-32500I-10000J0D01*
G01*
X92500Y-123000D02*
G03*
X86500Y-123000I-3000J0D01*
G01*
X42758Y-84856D02*
G03*
X42758Y-75144I8742J4856D01*
G01*
X82800Y-26500D02*
G03*
X82800Y-26500I-24000J0D01*
G01*
X62000Y-62000D02*
G03*
X42000Y-62000I-10000J-0D01*
G01*
X86500Y-16500D02*
X106500D01*
Y-11500D01*
X86500Y-16500D02*
Y-11500D01*
X101000Y-37500D02*
X105000D01*
X88000D02*
X92000D01*
X2500Y-134000D02*
X72500D01*
X2500Y-124000D02*
X72500D01*
Y-134000D02*
Y-124000D01*
X2500Y-134000D02*
Y-124000D01*
X124000Y-19500D02*
Y-4500D01*
X116000D02*
X124000D01*
X116000Y-19500D02*
Y-4500D01*
Y-19500D02*
X124000D01*
X92500Y-123000D02*
X99500D01*
Y-52500D01*
X79500Y-123000D02*
X86500D01*
X79500D02*
Y-52500D01*
X99500D01*
X64000Y-102500D02*
Y-94500D01*
X49000Y-102500D02*
X64000D01*
X49000D02*
Y-94500D01*
X64000D01*
X115500Y-103000D02*
X123500D01*
Y-118000D02*
Y-103000D01*
X115500Y-118000D02*
X123500D01*
X115500D02*
Y-103000D01*
X151000Y-46500D02*
X156000D01*
X116000D02*
X121000D01*
X131000D02*
X141000D01*
X116000Y-96500D02*
X121000D01*
X151000D02*
X156000D01*
Y-46500D01*
X131000Y-96500D02*
X141000D01*
X131000Y-71500D02*
X141000D01*
X136000D02*
Y-66500D01*
X141000Y-76500D02*
X151000D01*
X121000D02*
X131000D01*
X116000Y-96500D02*
Y-46500D01*
X2500Y-44000D02*
X7500D01*
X2500Y-49000D02*
X5000D01*
X2500Y-54000D02*
X5000D01*
X2500Y-59000D02*
X5000D01*
X2500Y-64000D02*
X7500D01*
X2500Y-39000D02*
X7500D01*
X2500Y-69000D02*
X7500D01*
X10000D02*
Y-59000D01*
X7500D02*
X10000D01*
X7500D02*
Y-49000D01*
X10000D01*
Y-39000D01*
X30000Y-69000D02*
Y-39000D01*
X10000D02*
X30000D01*
X10000Y-69000D02*
X30000D01*
X3800Y-106600D02*
X29800D01*
Y-80600D01*
X3800D02*
X29800D01*
X3800Y-106600D02*
Y-80600D01*
X12400Y-76200D02*
X18400D01*
X15400Y-79200D02*
Y-73200D01*
X12600Y-110300D02*
X18600D01*
X128000Y-8500D02*
X158000D01*
X128000Y-18500D02*
Y-8500D01*
Y-18500D02*
X158000D01*
Y-8500D01*
X8000Y-33500D02*
Y-3500D01*
X18000D01*
Y-33500D02*
Y-3500D01*
X8000Y-33500D02*
X18000D01*
X42758Y-84856D02*
Y-75144D01*
X57000Y-119500D02*
Y-109500D01*
X53000Y-119500D02*
Y-109500D01*
X49000Y-114500D02*
X53000D01*
X57000D02*
X61000D01*
Y-34000D02*
Y-19000D01*
X56000D02*
X61000D01*
X56000Y-34000D02*
Y-19000D01*
Y-34000D02*
X61000D01*
X62500D02*
Y-19000D01*
X54500Y-34000D02*
Y-19000D01*
X52500Y-26500D02*
X54500D01*
X62500D02*
X65000D01*
X76500D02*
X81500D01*
X79000Y-29000D02*
Y-24000D01*
X42000Y-67000D02*
Y-62000D01*
X62000Y-67000D02*
Y-62000D01*
X42000Y-67000D02*
X62000D01*
X92000Y-110500D02*
X88001D01*
X86002Y-108501D01*
X88001Y-106501D01*
X92000D01*
X89001D01*
Y-110500D01*
X86002Y-104502D02*
Y-100503D01*
Y-102503D01*
X92000D01*
X87002Y-97504D02*
X88001D01*
Y-98504D01*
Y-96504D01*
Y-97504D01*
X91000D01*
X92000Y-96504D01*
Y-93506D02*
Y-91506D01*
Y-92506D01*
X88001D01*
Y-93506D01*
X92000Y-88507D02*
X88001D01*
Y-85508D01*
X89001Y-84508D01*
X92000D01*
X88001Y-82509D02*
X91000D01*
X92000Y-81509D01*
Y-78510D01*
X93000D01*
X93999Y-79510D01*
Y-80510D01*
X92000Y-78510D02*
X88001D01*
X87002Y-76511D02*
X86002Y-75511D01*
Y-73512D01*
X87002Y-72512D01*
X88001D01*
X89001Y-73512D01*
X90001Y-72512D01*
X91000D01*
X92000Y-73512D01*
Y-75511D01*
X91000Y-76511D01*
X90001D01*
X89001Y-75511D01*
X88001Y-76511D01*
X87002D01*
X89001Y-75511D02*
Y-73512D01*
X92000Y-67514D02*
X86002D01*
X89001Y-70513D01*
Y-66514D01*
X130500Y-61000D02*
Y-55002D01*
X133499D01*
X134499Y-56002D01*
Y-58001D01*
X133499Y-59001D01*
X130500D01*
X136498Y-55002D02*
Y-61000D01*
X139497D01*
X140497Y-60000D01*
Y-59001D01*
X139497Y-58001D01*
X136498D01*
X139497D01*
X140497Y-57001D01*
Y-56002D01*
X139497Y-55002D01*
X136498D01*
D25*
X78548Y-132167D02*
Y-129501D01*
X79880Y-128168D01*
X81213Y-129501D01*
Y-132167D01*
Y-130168D01*
X78548D01*
X82546Y-132167D02*
X83879D01*
X83213D01*
Y-129501D01*
X82546D01*
X85879D02*
Y-132167D01*
Y-130834D01*
X86545Y-130168D01*
X87212Y-129501D01*
X87878D01*
X89877Y-132167D02*
X91877D01*
X92543Y-131501D01*
X91877Y-130834D01*
X90544D01*
X89877Y-130168D01*
X90544Y-129501D01*
X92543D01*
X94542Y-132167D02*
X95875D01*
X96542Y-131501D01*
Y-130168D01*
X95875Y-129501D01*
X94542D01*
X93876Y-130168D01*
Y-131501D01*
X94542Y-132167D01*
X98541D02*
Y-128835D01*
Y-130168D01*
X97875D01*
X99208D01*
X98541D01*
Y-128835D01*
X99208Y-128168D01*
X101874Y-128835D02*
Y-129501D01*
X101207D01*
X102540D01*
X101874D01*
Y-131501D01*
X102540Y-132167D01*
X111204Y-128835D02*
X110537Y-128168D01*
X109204D01*
X108538Y-128835D01*
Y-131501D01*
X109204Y-132167D01*
X110537D01*
X111204Y-131501D01*
X112537Y-132167D02*
X113870D01*
X113203D01*
Y-128168D01*
X112537D01*
X116535Y-129501D02*
X117868D01*
X118535Y-130168D01*
Y-132167D01*
X116535D01*
X115869Y-131501D01*
X116535Y-130834D01*
X118535D01*
X119868Y-129501D02*
Y-131501D01*
X120534Y-132167D01*
X122533D01*
Y-132834D01*
X121867Y-133500D01*
X121201D01*
X122533Y-132167D02*
Y-129501D01*
X123866Y-132167D02*
Y-129501D01*
X124533D01*
X125199Y-130168D01*
Y-132167D01*
Y-130168D01*
X125866Y-129501D01*
X126532Y-130168D01*
Y-132167D01*
X128532D02*
X129864D01*
X130531Y-131501D01*
Y-130168D01*
X129864Y-129501D01*
X128532D01*
X127865Y-130168D01*
Y-131501D01*
X128532Y-132167D01*
X131864Y-129501D02*
Y-132167D01*
Y-130834D01*
X132530Y-130168D01*
X133197Y-129501D01*
X133863D01*
X137862Y-132167D02*
X136529D01*
X135863Y-131501D01*
Y-130168D01*
X136529Y-129501D01*
X137862D01*
X138528Y-130168D01*
Y-130834D01*
X135863D01*
X143860Y-129501D02*
X145193Y-132167D01*
X146526Y-129501D01*
X147859Y-128835D02*
X148525Y-128168D01*
X149858D01*
X150524Y-128835D01*
Y-129501D01*
X149858Y-130168D01*
X149191D01*
X149858D01*
X150524Y-130834D01*
Y-131501D01*
X149858Y-132167D01*
X148525D01*
X147859Y-131501D01*
X151857Y-132167D02*
Y-131501D01*
X152524D01*
Y-132167D01*
X151857D01*
X157855D02*
X155190D01*
X157855Y-129501D01*
Y-128835D01*
X157189Y-128168D01*
X155856D01*
X155190Y-128835D01*
X80500Y-4001D02*
X83166D01*
X81833D01*
Y-8000D01*
X84499D02*
X85832D01*
X85165D01*
Y-4001D01*
X84499Y-4668D01*
X117000Y-25500D02*
Y-21501D01*
X118999D01*
X119666Y-22168D01*
Y-23501D01*
X118999Y-24167D01*
X117000D01*
X118333D02*
X119666Y-25500D01*
X120999Y-22168D02*
X121665Y-21501D01*
X122998D01*
X123664Y-22168D01*
Y-22834D01*
X122998Y-23501D01*
X122332D01*
X122998D01*
X123664Y-24167D01*
Y-24834D01*
X122998Y-25500D01*
X121665D01*
X120999Y-24834D01*
X32001Y-101000D02*
X36000D01*
Y-99001D01*
X35334Y-98334D01*
X34667D01*
X34001Y-99001D01*
Y-101000D01*
Y-99001D01*
X33334Y-98334D01*
X32668D01*
X32001Y-99001D01*
Y-101000D01*
X33334Y-96335D02*
Y-95002D01*
X34001Y-94336D01*
X36000D01*
Y-96335D01*
X35334Y-97001D01*
X34667Y-96335D01*
Y-94336D01*
X32668Y-92336D02*
X33334D01*
Y-93003D01*
Y-91670D01*
Y-92336D01*
X35334D01*
X36000Y-91670D01*
X32668Y-89004D02*
X33334D01*
Y-89670D01*
Y-88337D01*
Y-89004D01*
X35334D01*
X36000Y-88337D01*
X50000Y-15500D02*
Y-11501D01*
X51999D01*
X52666Y-12168D01*
Y-13501D01*
X51999Y-14167D01*
X50000D01*
X53999Y-15500D02*
X55332D01*
X54665D01*
Y-12834D01*
X53999D01*
X59330Y-15500D02*
X57997D01*
X57331Y-14833D01*
Y-13501D01*
X57997Y-12834D01*
X59330D01*
X59997Y-13501D01*
Y-14167D01*
X57331D01*
X61330Y-12834D02*
X63995D01*
X61330Y-15500D01*
X63995D01*
X65995D02*
X67328D01*
X67994Y-14833D01*
Y-13501D01*
X67328Y-12834D01*
X65995D01*
X65328Y-13501D01*
Y-14833D01*
X65995Y-15500D01*
X110666Y-36168D02*
X109999Y-35501D01*
X108667D01*
X108000Y-36168D01*
Y-38834D01*
X108667Y-39500D01*
X109999D01*
X110666Y-38834D01*
X111999Y-39500D02*
X113332D01*
X112665D01*
Y-35501D01*
X111999Y-36168D01*
X32501Y-61000D02*
Y-59667D01*
Y-60334D01*
X36500D01*
Y-61000D01*
Y-59667D01*
X33168Y-55002D02*
X32501Y-55668D01*
Y-57001D01*
X33168Y-57668D01*
X33834D01*
X34501Y-57001D01*
Y-55668D01*
X35167Y-55002D01*
X35834D01*
X36500Y-55668D01*
Y-57001D01*
X35834Y-57668D01*
X36500Y-53669D02*
X32501D01*
Y-51670D01*
X33168Y-51003D01*
X34501D01*
X35167Y-51670D01*
Y-53669D01*
X129000Y-113000D02*
X125001D01*
Y-111001D01*
X125668Y-110334D01*
X127001D01*
X127667Y-111001D01*
Y-113000D01*
Y-111667D02*
X129000Y-110334D01*
Y-109001D02*
Y-107668D01*
Y-108335D01*
X125001D01*
X125668Y-109001D01*
X43500Y-95000D02*
X47499D01*
Y-96999D01*
X46832Y-97666D01*
X45499D01*
X44833Y-96999D01*
Y-95000D01*
Y-96333D02*
X43500Y-97666D01*
Y-101664D02*
Y-98999D01*
X46166Y-101664D01*
X46832D01*
X47499Y-100998D01*
Y-99665D01*
X46832Y-98999D01*
X3000Y-121000D02*
Y-117001D01*
X4999D01*
X5666Y-117668D01*
Y-119001D01*
X4999Y-119667D01*
X3000D01*
X4333D02*
X5666Y-121000D01*
X9664Y-117001D02*
X6999D01*
Y-119001D01*
X8332D01*
X6999D01*
Y-121000D01*
X10997Y-118334D02*
Y-121000D01*
Y-119667D01*
X11664Y-119001D01*
X12330Y-118334D01*
X12997D01*
X16996Y-121000D02*
X15663D01*
X14996Y-120334D01*
Y-119001D01*
X15663Y-118334D01*
X16996D01*
X17662Y-119001D01*
Y-119667D01*
X14996D01*
X21661Y-118334D02*
X19661D01*
X18995Y-119001D01*
Y-120334D01*
X19661Y-121000D01*
X21661D01*
X24993D02*
X23660D01*
X22994Y-120334D01*
Y-119001D01*
X23660Y-118334D01*
X24993D01*
X25659Y-119001D01*
Y-119667D01*
X22994D01*
X26992Y-121000D02*
X28325D01*
X27659D01*
Y-118334D01*
X26992D01*
X30325D02*
X31657Y-121000D01*
X32990Y-118334D01*
X36323Y-121000D02*
X34990D01*
X34323Y-120334D01*
Y-119001D01*
X34990Y-118334D01*
X36323D01*
X36989Y-119001D01*
Y-119667D01*
X34323D01*
X38322Y-118334D02*
Y-121000D01*
Y-119667D01*
X38988Y-119001D01*
X39655Y-118334D01*
X40321D01*
X63501Y-60000D02*
Y-57334D01*
Y-58667D01*
X67500D01*
Y-53335D02*
Y-56001D01*
X64834Y-53335D01*
X64168D01*
X63501Y-54002D01*
Y-55335D01*
X64168Y-56001D01*
X47166Y-107168D02*
X46499Y-106501D01*
X45166D01*
X44500Y-107168D01*
Y-109834D01*
X45166Y-110500D01*
X46499D01*
X47166Y-109834D01*
X51165Y-110500D02*
X48499D01*
X51165Y-107834D01*
Y-107168D01*
X50498Y-106501D01*
X49165D01*
X48499Y-107168D01*
X137672Y-26173D02*
X139558Y-28058D01*
X141443D01*
Y-26173D01*
X139558Y-24287D01*
X143327Y-22402D02*
X141914Y-23816D01*
Y-24759D01*
X142856Y-25701D01*
X143799D01*
X145212Y-24287D01*
X146155Y-19575D02*
X144741Y-20989D01*
Y-21931D01*
X145684Y-22874D01*
X146626D01*
X148040Y-21460D01*
X129173Y-22672D02*
X130115Y-21730D01*
X129644Y-22201D01*
X132471Y-25029D01*
X132000Y-25500D01*
X132942Y-24557D01*
X134356Y-23144D02*
X132471Y-21259D01*
X133885Y-19845D01*
X134827D01*
X136241Y-21259D01*
X150029Y-25259D02*
X149086D01*
X148144Y-26201D01*
Y-27144D01*
X150029Y-29029D01*
X150971D01*
X151914Y-28086D01*
Y-27144D01*
X150971Y-26201D01*
X150029Y-27144D01*
X153328Y-26673D02*
X150500Y-23845D01*
X155212Y-24788D01*
X152385Y-21960D01*
X153328Y-21017D02*
X156155Y-23845D01*
X157569Y-22431D01*
Y-21489D01*
X155684Y-19604D01*
X154741D01*
X153328Y-21017D01*
X136666Y-3668D02*
X135999Y-3001D01*
X134667D01*
X134000Y-3668D01*
Y-4334D01*
X134667Y-5001D01*
X135999D01*
X136666Y-5667D01*
Y-6334D01*
X135999Y-7000D01*
X134667D01*
X134000Y-6334D01*
X139998Y-7000D02*
X138665D01*
X137999Y-6334D01*
Y-5001D01*
X138665Y-4334D01*
X139998D01*
X140665Y-5001D01*
Y-5667D01*
X137999D01*
X141997Y-4334D02*
Y-7000D01*
Y-5667D01*
X142664Y-5001D01*
X143330Y-4334D01*
X143997D01*
X145996D02*
X147329Y-7000D01*
X148662Y-4334D01*
X150661Y-7000D02*
X151994D01*
X152661Y-6334D01*
Y-5001D01*
X151994Y-4334D01*
X150661D01*
X149995Y-5001D01*
Y-6334D01*
X150661Y-7000D01*
X19672Y-29173D02*
X21557Y-31058D01*
X23442D01*
Y-29173D01*
X21557Y-27288D01*
X25328Y-25403D02*
X23914Y-26816D01*
Y-27759D01*
X24856Y-28701D01*
X25799D01*
X27213Y-27288D01*
X28155Y-22575D02*
X26741Y-23989D01*
Y-24931D01*
X27684Y-25874D01*
X28626D01*
X30040Y-24460D01*
X20586Y-17759D02*
X19644Y-18701D01*
Y-19644D01*
X21529Y-21529D01*
X22471D01*
X23414Y-20586D01*
Y-19644D01*
X21529Y-17759D01*
X20586D01*
X22942Y-17288D02*
X24356Y-18701D01*
X25299D01*
X26713Y-17288D01*
X24827Y-15403D01*
X25770Y-13518D02*
X26241Y-13989D01*
X25770Y-14460D01*
X26713Y-13518D01*
X26241Y-13989D01*
X27655Y-15403D01*
X28598D01*
X21529Y-8259D02*
X20586D01*
X19644Y-9201D01*
Y-10144D01*
X21529Y-12029D01*
X22471D01*
X23414Y-11086D01*
Y-10144D01*
X22471Y-9201D01*
X21529Y-10144D01*
X24827Y-9673D02*
X22000Y-6845D01*
X26713Y-7788D01*
X23885Y-4960D01*
X24827Y-4017D02*
X27655Y-6845D01*
X29069Y-5431D01*
Y-4489D01*
X27184Y-2604D01*
X26241D01*
X24827Y-4017D01*
X6500Y-23500D02*
X2501D01*
Y-21501D01*
X3168Y-20834D01*
X4501D01*
X5167Y-21501D01*
Y-23500D01*
X2501Y-19501D02*
Y-18168D01*
Y-18835D01*
X6500D01*
Y-19501D01*
Y-18168D01*
Y-16169D02*
X2501D01*
Y-14170D01*
X3168Y-13503D01*
X4501D01*
X5167Y-14170D01*
Y-16169D01*
Y-14836D02*
X6500Y-13503D01*
D26*
X48000Y-72501D02*
Y-75500D01*
X49999D01*
X52998Y-72501D02*
X50999D01*
Y-75500D01*
X52998D01*
X50999Y-74001D02*
X51999D01*
X53998Y-72501D02*
Y-75500D01*
X55498D01*
X55997Y-75000D01*
Y-73001D01*
X55498Y-72501D01*
X53998D01*
M02*
